<svg width="200mm" height="200mm" viewBox="0 0 200 200" xmlns="http://www.w3.org/2000/svg">
<style>
  #logo {  fill: #f60;}
  @media (prefers-color-scheme: dark) {#logo { fill: #ffffff; }}
</style>
<g id="logo" transform="matrix(1.9361 0 0 1.9361 3.215 3.196)">
<path d="M57.99 44.51v50.3l12.95-12.94 9.4 18.13 6.83-3.54-9.05-17.44h17.47"/>
<path d="M96.69 53.76c.09-.66.2-1.32.27-2 .15-1.51.24-3 .24-4.58s-.08-3-.22-4.46c-.07-.78-.2-1.54-.31-2.3-.08-.54-.13-1.09-.22-1.62a47.19 47.19 0 0 0-38-38c-.68-.15-1.31-.21-1.93-.3-.62-.09-1.35-.21-2-.28C53 .08 51.51 0 50 0c-1.51 0-3 .08-4.48.22-.69.07-1.36.18-2 .28-.64.1-1.26.14-1.87.25a47.19 47.19 0 0 0-38 38c-.1.57-.15 1.16-.24 1.74-.09.58-.32 1.51-.41 2.24-.14 1.47-.22 3-.22 4.47 0 1.47.08 3 .22 4.46.07.77.2 1.51.31 2.27.08.55.13 1.11.23 1.66a47.19 47.19 0 0 0 38 38c.58.1 1.17.16 1.75.24.58.08 1.44.22 2.18.29 1.47.14 3 .22 4.46.22h.14v-11H50a36.12 36.12 0 0 1-6.18-.57A96.25 96.25 0 0 1 40 64.14c3.25.2 6.6.32 10 .32h.14v-6.29H50c-3.77 0-7.31-.13-10.62-.35C39.15 54.51 39 51 39 47.2c0-3.8.13-7.31.35-10.63 3.32-.22 6.86-.35 10.63-.35 3.77 0 7.3.13 10.61.35v.57a7.72 7.72 0 0 1 2.65 1.59l3.87 3.55c-.05-1.74-.15-3.43-.26-5.12A96.67 96.67 0 0 1 85.64 41a36.46 36.46 0 0 1 .56 6.18 35.94 35.94 0 0 1-.54 6.17c-1.49.49-3.07 1-4.86 1.42l3.7 3.39 8.72 8a47 47 0 0 0 3.18-10.55c.15-.61.21-1.25.29-1.85zm-60-40.18a114.47 114.47 0 0 0-3.06 17.22 114.3 114.3 0 0 0-17.21 3.05 36.37 36.37 0 0 1 20.23-20.27zm0 67.25a36.36 36.36 0 0 1-20.31-20.28 114.26 114.26 0 0 0 17.21 3.06 114.65 114.65 0 0 0 3.05 17.21zm-3.63-23.59a96.5 96.5 0 0 1-18.7-3.85 34 34 0 0 1 0-12.37 96.5 96.5 0 0 1 18.7-3.85c-.2 3.25-.32 6.6-.32 10 0 3.4.12 6.83.32 10.07zM50 29.94c-3.43 0-6.78.11-10 .31a96.43 96.43 0 0 1 3.85-18.7 33.91 33.91 0 0 1 12.36 0A96.54 96.54 0 0 1 60 30.26c-3.22-.21-6.57-.32-10-.32zm16.39.85a114.66 114.66 0 0 0-3.05-17.22 36.36 36.36 0 0 1 20.28 20.28 114.22 114.22 0 0 0-17.23-3.06z"/>
</g>
</svg>