<svg viewBox="0 0 500 139.99999" height="140" width="500" xmlns="http://www.w3.org/2000/svg"><g transform="matrix(1.09204 0 0 1.09204 -2.09 15.398)" fill="#f60"><title>all</title><g data-name="Go to Web - Orange"><path d="M87.17 96.46l-9.05-17.44h17.47l-37.6-34.51v50.3l12.95-12.94 9.4 18.13"/><path d="M96.69 53.76c.09-.66.2-1.32.27-2 .15-1.51.24-3 .24-4.58s-.08-3-.22-4.46c-.07-.78-.2-1.54-.31-2.3-.08-.54-.13-1.09-.22-1.62a47.19 47.19 0 0 0-38-38c-.68-.15-1.31-.21-1.93-.3-.62-.09-1.35-.21-2-.28C53 .08 51.51 0 50 0c-1.51 0-3 .08-4.48.22-.69.07-1.36.18-2 .28-.64.1-1.26.14-1.87.25a47.19 47.19 0 0 0-38 38c-.1.57-.15 1.16-.24 1.74-.09.58-.32 1.51-.41 2.24-.14 1.47-.22 3-.22 4.47 0 1.47.08 3 .22 4.46.07.77.2 1.51.31 2.27.08.55.13 1.11.23 1.66a47.19 47.19 0 0 0 38 38c.58.1 1.17.16 1.75.24.58.08 1.44.22 2.18.29 1.47.14 3 .22 4.46.22h.14v-11H50a36.12 36.12 0 0 1-6.18-.57A96.25 96.25 0 0 1 40 64.14c3.25.2 6.6.32 10 .32h.14v-6.29H50c-3.77 0-7.31-.13-10.62-.35C39.15 54.51 39 51 39 47.2c0-3.8.13-7.31.35-10.63 3.32-.22 6.86-.35 10.63-.35 3.77 0 7.3.13 10.61.35v.57a7.72 7.72 0 0 1 2.65 1.59l3.87 3.55c-.05-1.74-.15-3.43-.26-5.12A96.67 96.67 0 0 1 85.64 41a36.46 36.46 0 0 1 .56 6.18 35.94 35.94 0 0 1-.54 6.17c-1.49.49-3.07 1-4.86 1.42l3.7 3.39 8.72 8a47 47 0 0 0 3.18-10.55c.15-.61.21-1.25.29-1.85zm-60-40.18a114.47 114.47 0 0 0-3.06 17.22 114.3 114.3 0 0 0-17.21 3.05 36.37 36.37 0 0 1 20.23-20.27zm0 67.25a36.36 36.36 0 0 1-20.31-20.28 114.26 114.26 0 0 0 17.21 3.06 114.65 114.65 0 0 0 3.05 17.21zm-3.63-23.59a96.5 96.5 0 0 1-18.7-3.85 34 34 0 0 1 0-12.37 96.5 96.5 0 0 1 18.7-3.85c-.2 3.25-.32 6.6-.32 10 0 3.4.12 6.83.32 10.07zM50 29.94c-3.43 0-6.78.11-10 .31a96.43 96.43 0 0 1 3.85-18.7 33.91 33.91 0 0 1 12.36 0A96.54 96.54 0 0 1 60 30.26c-3.22-.21-6.57-.32-10-.32zm16.39.85a114.66 114.66 0 0 0-3.05-17.22 36.36 36.36 0 0 1 20.28 20.28 114.22 114.22 0 0 0-17.23-3.06z"/></g></g><path d="M223.715 16.69c.92 0 1.674.745 1.674 1.574v63.11c0 .828-.67 1.657-1.592 1.657h-8.62c-1.004 0-1.673-.745-1.673-1.657v-40.22l-24.44 38.313c-.503.83-1.005 1.16-1.758 1.16h-.502c-.754 0-1.256-.33-1.758-1.16L160.692 41.07v40.304c0 .83-.754 1.658-1.674 1.658h-8.62c-.922 0-1.675-.746-1.675-1.658v-63.11c0-.828.67-1.574 1.674-1.574h7.198c.836 0 1.422.33 1.925 1.078l27.536 43.123 27.62-43.122c.418-.747 1.003-1.078 1.924-1.078h7.114zm74.484 0c.92 0 2.01.745 1.424 1.906l-30.716 63.608c-.335.663-1.005 1.243-1.842 1.243h-.67c-.753 0-1.422-.58-1.757-1.243l-30.717-63.69c-.587-1.078.5-1.825 1.422-1.825h10.964c.836 0 1.254.746 1.673 1.658l18.748 40.884 18.832-40.884c.42-.912.753-1.66 1.674-1.66H298.2zm65.452 53.904c.837.663.836 1.492.083 2.24-6.193 6.716-14.982 10.78-25.025 10.78-18.413 0-33.813-14.68-33.813-33.587 0-18.826 15.4-33.92 33.813-33.92 10.127 0 19 4.148 25.276 10.948.753.747.67 1.576-.084 2.24l-6.947 5.556c-.838.664-1.59.58-2.26-.165-3.6-3.732-9.206-7.132-15.902-7.132-12.303 0-21.927 10.532-21.927 22.474 0 12.108 9.624 22.142 21.927 22.142 6.612 0 12.136-3.235 15.652-6.884.753-.746 1.506-.83 2.343-.25zm16.153-14.43c-3.766 0-7.03-3.07-7.03-6.884 0-3.815 3.264-6.966 7.03-6.966 3.766 0 7.03 3.15 7.03 6.966 0 3.815-3.264 6.883-7.03 6.883zm0 26.62c-3.766 0-7.03-3.15-7.03-6.883 0-3.814 3.264-6.965 7.03-6.965 3.766 0 7.03 3.15 7.03 6.966 0 3.733-3.264 6.884-7.03 6.884zm22.933-26.62c-3.766 0-7.03-3.07-7.03-6.884 0-3.815 3.264-6.966 7.03-6.966 3.766 0 7.03 3.15 7.03 6.966 0 3.815-3.264 6.883-7.03 6.883zm0 26.62c-3.766 0-7.03-3.15-7.03-6.883 0-3.814 3.264-6.965 7.03-6.965 3.766 0 7.03 3.15 7.03 6.966 0 3.733-3.264 6.884-7.03 6.884zm68.63-66.178h-8.79c-.92 0-1.59.58-1.59 1.66v40.22c0 8.542-5.523 13.684-14.647 13.684-9.038 0-14.31-5.142-14.31-13.684v-40.22c0-.996-.67-1.66-1.59-1.66h-8.622c-1.004 0-1.756.664-1.756 1.66V58.9c0 14.1 9.708 24.714 26.28 24.714 16.656 0 26.615-10.615 26.615-24.713V18.266c0-1.078-.67-1.66-1.59-1.66zm24.02.083h-8.285c-.92 0-1.59.746-1.59 1.575v63.11c0 .91.754 1.657 1.674 1.657h8.286c.836 0 1.59-.83 1.59-1.658v-63.11c0-.828-.837-1.575-1.674-1.575z" fill="#d45500"/><path d="M153.333 121.353l-.01-.02c.85 0 1.555-.73 1.555-1.61 0-.68-.257-1.116-.782-1.314-1.107-.425-.84-.327-1.918-.712-1.135-.405-2.184-1.205-2.89-2.202-.42-.593-.63-1.324-.63-2.203 0-1.323.458-2.46 1.374-3.407.916-.95 2.013-1.423 3.3-1.423 1.28 0 2.376.474 3.292 1.423.916.948 1.374 2.084 1.374 3.407h-3.1c0-.87-.707-1.6-1.546-1.6-.85 0-1.555.73-1.555 1.61 0 .573.22 1.008.668 1.304.916.612.81.494 1.908.83 1.183.355 2.25 1.116 2.986 2.093.428.573.648 1.314.648 2.213 0 1.333-.458 2.47-1.374 3.417-.916.95-2.013 1.423-3.292 1.423-1.288 0-2.385-.474-3.3-1.423-.917-.948-1.375-2.084-1.375-3.417h3.11c0 .89.697 1.61 1.556 1.61zm29.634 3.14v-15.92h3.082v15.92zm28.155-16.217l7.5 10.647 7.498-10.647v16.218h-3.08v-6.57l-4.42 6.313-4.416-6.312v6.57h-3.082zm40.072 16.218v-15.922h5.382c1.478 0 2.746.543 3.806 1.64 1.06 1.096 1.583 2.41 1.583 3.94 0 1.53-.524 2.845-1.583 3.93-1.06 1.088-2.328 1.63-3.807 1.63h-2.3v4.782zm3.08-7.96l2.3.01c.64 0 1.184-.238 1.632-.703.45-.463.678-1.026.678-1.688 0-.65-.23-1.214-.678-1.69-.448-.473-.992-.71-1.63-.71h-2.3v4.78zm32.574-7.962h3.082v12.732h6.144v3.19h-9.226v-15.922zm30.674 0h3.492l2.652 5.047 2.653-5.048h3.5l-4.618 8.78v7.142h-3.072v-7.14zm66.262 0h9.226v3.18h-6.144v3.19h4.608v3.18h-4.608v6.372h-3.082v-9.55zm36.284 10.657h2.72l-1.356-3.31zm-1.26 2.814l-.018-.01c-.344.81-.697 1.61-1.05 2.42h-3.31l6.974-16.178 6.993 16.178h-3.32c-.344-.8-.687-1.61-1.03-2.41h-5.238zm38.097-.69l-.01-.02c.85 0 1.556-.732 1.556-1.61 0-.682-.257-1.117-.782-1.315-1.106-.425-.84-.327-1.917-.712-1.135-.405-2.184-1.205-2.89-2.202-.42-.593-.63-1.324-.63-2.203 0-1.323.458-2.46 1.374-3.407.916-.95 2.013-1.423 3.3-1.423 1.28 0 2.377.474 3.293 1.423.915.948 1.373 2.084 1.373 3.407h-3.1c0-.87-.706-1.6-1.546-1.6-.85 0-1.555.73-1.555 1.61 0 .573.22 1.008.667 1.304.916.612.81.494 1.908.83 1.183.355 2.252 1.116 2.986 2.093.43.573.65 1.314.65 2.213 0 1.333-.458 2.47-1.374 3.417-.916.95-2.013 1.423-3.29 1.423-1.29 0-2.387-.474-3.302-1.423-.916-.948-1.374-2.084-1.374-3.417h3.11c0 .89.696 1.61 1.555 1.61zm33.29-12.782H497.12v3.18h-3.845v12.742h-3.08v-12.742h-3.846v-3.18z" fill="#f60"/></svg>