<svg width="100" height="100" fill="#ff6600" xmlns="http://www.w3.org/2000/svg"><path fill-rule="evenodd" d="M90.45 22.988a4.03 4.03 0 0 1 2.537 3.74v46.545a4.03 4.03 0 0 1-2.536 3.74L51.495 92.596a4.03 4.03 0 0 1-2.993 0L9.545 77.013a4.03 4.03 0 0 1-2.53-3.74V26.728a4.03 4.03 0 0 1 2.53-3.74L47.007 8.002l.022-.005 1.47-.59a4.03 4.03 0 0 1 3 0l1.472.59.02.005zM83.07 25.82L50 39.05 16.932 25.82l-4.546 1.822v2.15l34.927 13.97V86.33L50 87.405l2.687-1.075V43.767l34.927-13.97v-2.15l-4.546-1.82z"/></svg>