<svg width="120" height="120" viewBox="0 0 31.749998 31.750001" xmlns="http://www.w3.org/2000/svg"><path d="M9.887 21.67c-2.285-1.255-4.4-2.533-4.7-2.84-.544-.56-.544-.56-.54-5.722.004-4.63.043-5.242.375-5.942.203-.43.67-.993 1.034-1.253.366-.26 2.57-1.517 4.9-2.795 3.37-1.85 4.377-2.32 4.944-2.305.392.01 2.663.51 5.047 1.11 3.022.765 4.398 1.196 4.55 1.427.153.235.155.425.006.65-.116.176-2.163 1.373-4.55 2.66-2.386 1.29-4.533 2.39-4.773 2.45-.238.058-2.234-.32-4.436-.84-2.2-.522-4.114-.907-4.25-.857-.136.05-.3.22-.36.375-.064.156-.034.427.065.6.096.176 1.676 1.126 3.51 2.112 1.832.987 3.577 2.025 3.876 2.308.544.514.544.514.544 5.64 0 4.872-.018 5.134-.382 5.32-.21.108-.455.194-.544.19-.09-.003-2.03-1.032-4.317-2.286zm7.075 2.074c-.186-.178-.248-1.52-.248-5.395 0-5.16 0-5.16.573-5.62.314-.254 2.05-1.26 3.858-2.237 1.808-.977 3.287-1.878 3.287-2.002 0-.123-.49-.49-1.09-.813-.597-.323-1.087-.667-1.087-.763 0-.096.245-.337.544-.536.297-.2.71-.42.92-.493.255-.09.803.114 1.73.64.964.55 1.395.918 1.502 1.285.083.282.15 2.735.15 5.45 0 4.245-.045 5-.322 5.4-.18.262-2.188 1.49-4.57 2.798-2.335 1.283-4.416 2.375-4.624 2.427-.207.052-.488-.013-.624-.143z" fill="#f4d0a4"/><path d="M16.962 23.744c-.186-.178-.248-1.52-.248-5.395 0-5.16 0-5.16.573-5.62.314-.254 2.05-1.26 3.858-2.237 1.808-.977 3.287-1.878 3.287-2.002 0-.123-.49-.49-1.09-.813-.597-.323-1.087-.667-1.087-.763 0-.096.245-.337.544-.536.297-.2.71-.42.92-.493.255-.09.803.114 1.73.64.964.55 1.395.918 1.502 1.285.083.282.15 2.735.15 5.45 0 4.245-.045 5-.322 5.4-.18.262-2.188 1.49-4.57 2.798-2.335 1.283-4.416 2.375-4.624 2.427-.207.052-.488-.013-.624-.143zM9.82 21.36c-3.207-1.748-4.497-2.552-4.7-2.927-.22-.406-.28-1.554-.278-5.313 0-2.637.09-5.097.196-5.466.107-.37.485-.938.84-1.263.355-.323 2.358-1.527 4.45-2.674 2.094-1.147 4.043-2.264 4.332-2.48.35-.265.795-.39 1.34-.38.447.007 2.72.497 5.048 1.088 2.944.748 4.3 1.177 4.45 1.407.153.233.156.427.01.647-.112.172-1.36.942-2.768 1.71-1.41.768-3.49 1.878-4.625 2.466-2.062 1.07-2.062 1.07-3.364.66-.714-.226-2.58-.713-4.142-1.082-2.642-.624-2.876-.65-3.315-.375-.26.163-.472.452-.472.642s.17.493.38.673c.207.18 1.966 1.203 3.907 2.275 2.22 1.225 3.62 2.117 3.775 2.403.175.323.246 1.78.248 5.062.002 2.82-.076 4.75-.202 4.976-.112.2-.313.366-.445.366-.13 0-2.23-1.085-4.66-2.41z" fill="#cda1d5"/><path d="M11.074 21.87l-4.25-2.398c-.705-.397-1.397-.936-1.538-1.196-.196-.362-.244-1.688-.202-5.59.053-5.004.064-5.133.51-5.733.262-.35 1.28-1.075 2.376-1.69 1.054-.59 3.2-1.804 4.77-2.695 2.852-1.62 2.852-1.62 7.496-.49 2.554.62 4.787 1.23 4.964 1.355.284.2.287.256.023.5-.163.15-2.167 1.268-4.452 2.483S16.4 8.678 16.13 8.742c-.265.065-1.022-.03-1.68-.208-.66-.178-2.44-.624-3.96-.99-2.143-.517-2.86-.622-3.21-.47-.246.108-.503.404-.57.66-.066.253-.025.633.09.843.12.21 1.797 1.234 3.73 2.275 1.93 1.042 3.67 2.03 3.863 2.198.32.28.345.73.297 5.37-.046 4.335-.096 5.067-.35 5.095-.164.017-1.633-.723-3.266-1.644zm6.076 1.485c-.172-.164-.237-1.51-.235-4.88.002-3.353.072-4.785.25-5.124.167-.31 1.475-1.137 3.904-2.462 2.236-1.22 3.68-2.12 3.72-2.324.044-.227-.25-.52-.94-.93-.55-.327-1.002-.667-1.002-.753 0-.085.232-.302.517-.48.502-.317.552-.31 1.59.21.59.297 1.248.75 1.462 1.01.36.44.386.794.386 5.367 0 3.15-.077 5.056-.217 5.35-.15.31-1.6 1.223-4.54 2.852-2.377 1.316-4.4 2.394-4.493 2.394-.093 0-.277-.103-.407-.228z" fill="#e6870d"/><g style="line-height:120%;-inkscape-font-specification:'Sawasdee, Bold'" font-weight="bold" font-size="8.467" font-family="Sawasdee" letter-spacing="0" word-spacing="0" fill="#e6870d" stroke-width=".265"><path d="M4.58 24.528l-.615.21-.045-.136q-.132-.372-.422-.566-.29-.195-.632-.195-.4 0-.654.258-.252.252-.252.616 0 .194.1.35.103.158.272.27.17.112.393.215.223.098.467.202.244.1.488.21.244.108.467.26.223.15.393.336.17.182.27.45.102.265.102.587 0 .55-.293.997-.295.442-.762.678-.467.23-1 .23-.352 0-.675-.11-.322-.112-.603-.33-.277-.22-.476-.584-.198-.368-.264-.84l-.02-.14.648-.078.02.132q.05.335.183.595.133.257.32.41.185.148.404.227.22.074.463.074.567 0 .984-.355.423-.355.423-.92 0-.307-.165-.54-.162-.23-.422-.375-.256-.15-.57-.277-.315-.132-.633-.273-.314-.14-.575-.314-.256-.173-.422-.45-.16-.28-.16-.65 0-.623.433-1.06.433-.444 1.116-.444.54 0 1.004.315.463.315.662.885zM5.26 25.23h.682l1.314 3.213 1.282-3.212h.69l-2.464 6.214h-.698L6.92 29.3zM10.55 25.855q.444-.496 1.014-.7l.823.576q-.356 0-.645.075-.29.07-.476.182-.186.108-.326.26-.14.154-.21.294-.07.142-.117.303-.04.157-.053.252-.01.095-.01.182v2.154h-.644v-2.96q0-.31-.058-.702-.053-.393-.128-.537h.724q.107.294.107.625zM16.488 29.43h-.72q-.12-.272-.12-.574-.644.645-1.413.645-.364 0-.65-.11-.284-.112-.454-.294-.164-.182-.25-.388-.084-.21-.084-.426 0-.224.07-.405.07-.187.178-.32.108-.135.285-.24.177-.106.338-.172.166-.066.402-.116.24-.05.41-.07.172-.026.425-.038.252-.013.384-.013.13-.005.346-.005-.057-.517-.38-.818-.318-.302-.72-.302-.1 0-.19.016-.09.018-.17.05-.078.034-.144.067-.066.033-.132.087l-.107.09q-.042.034-.09.096-.05.058-.072.087-.02.024-.057.074-.037.05-.037.055l-.537-.33q.073-.113.123-.18.054-.065.206-.222.157-.157.305-.252.153-.094.397-.173.244-.083.505-.083.335 0 .65.128.317.13.565.36.248.232.397.595.152.364.152.798v1.385q0 .282.054.567.054.28.132.434zm-2.253-.553q.405 0 .802-.26T15.65 28v-.558q-.348.004-.625.025-.273.02-.583.075-.31.053-.517.14-.207.087-.343.24-.137.153-.137.36 0 .215.2.405.197.19.59.19zM21.532 29.43H20.8q-.112-.36-.112-.636-.264.306-.64.5-.372.19-.736.19-.562 0-1.03-.293-.467-.292-.73-.784-.262-.496-.262-1.075 0-.574.26-1.066.265-.496.732-.794.468-.297 1.03-.297.36 0 .736.19.38.19.64.492v-2.588h.658v4.936q0 .306.054.7.053.387.132.528zm-.844-2.1q0-.64-.413-1.087-.41-.45-.963-.45-.554 0-.972.45-.413.447-.413 1.088 0 .642.413 1.088.418.447.972.447t.963-.443q.413-.446.413-1.09zM23.053 26.86h2.626q-.134-.472-.502-.765-.363-.294-.81-.294-.438 0-.806.295-.364.293-.51.764zm-.074.61q.048.597.45.994.4.392.92.392.41 0 .762-.206.352-.21.59-.616l.564.3q-.162.287-.377.506-.216.215-.418.335-.203.12-.426.194-.223.073-.384.094-.158.02-.31.02-.563 0-1.03-.293-.467-.292-.732-.784-.26-.496-.26-1.075 0-.574.27-1.066.267-.496.74-.794.47-.297 1.028-.297.533 0 .984.268.45.27.723.725.273.45.32.988l.015.318zM26.92 25.23h.702l1.285 2.655 1.29-2.654h.707l-1.98 4.263z"/></g></svg>